<?xml version="1.0" encoding="UTF-8" standalone="no"?>
<!-- Created with Inkscape (http://www.inkscape.org/) -->

<svg
   width="79.019447mm"
   height="9.1583319mm"
   viewBox="0 0 79.019447 9.1583319"
   version="1.1"
   id="svg5"
   sodipodi:docname="Blmz.svg"
   inkscape:version="1.1.1 (3bf5ae0d25, 2021-09-20)"
   xmlns:inkscape="http://www.inkscape.org/namespaces/inkscape"
   xmlns:sodipodi="http://sodipodi.sourceforge.net/DTD/sodipodi-0.dtd"
   xmlns="http://www.w3.org/2000/svg"
   xmlns:svg="http://www.w3.org/2000/svg">
  <sodipodi:namedview
     id="namedview7"
     pagecolor="#ffffff"
     bordercolor="#666666"
     borderopacity="1.0"
     inkscape:pageshadow="2"
     inkscape:pageopacity="0.0"
     inkscape:pagecheckerboard="0"
     inkscape:document-units="mm"
     showgrid="false"
     inkscape:zoom="8.3641456"
     inkscape:cx="151.47991"
     inkscape:cy="11.59712"
     inkscape:window-width="3840"
     inkscape:window-height="2066"
     inkscape:window-x="2869"
     inkscape:window-y="-11"
     inkscape:window-maximized="1"
     inkscape:current-layer="g834"
     fit-margin-top="0"
     fit-margin-left="0"
     fit-margin-right="0"
     fit-margin-bottom="0" />
  <defs
     id="defs2">
    <clipPath
       clipPathUnits="userSpaceOnUse"
       id="clipPath838">
      <path
         d="M 546,0 H 9921 V 3648 H 546 V 0"
         id="path836" />
    </clipPath>
  </defs>
  <g
     inkscape:label="Warstwa 1"
     inkscape:groupmode="layer"
     id="layer1"
     transform="translate(-57.153995,-143.32269)">
    <g
       id="g834"
       clip-path="url(#clipPath838)"
       transform="matrix(0.02116667,0,0,-0.02116667,16.306367,174.82556)">
      <path
         style="fill:#30404d;fill-opacity:1;stroke:#30404d;stroke-width:1.35264;stroke-linecap:round;stroke-linejoin:round;stroke-opacity:1"
         d="m 491.93958,575.51956 c -1.96805,-0.0987 -5.59188,-0.40465 -6.59413,-0.55662 -0.55797,-0.0846 -1.61658,-0.24197 -2.35247,-0.3497 -3.76208,-0.55076 -7.45111,-1.88374 -9.50281,-3.43372 -1.92461,-1.45398 -2.93926,-3.16474 -2.93926,-4.95576 0,-1.1409 0.26556,-1.78702 1.15857,-2.81881 0.38572,-0.44567 0.70131,-0.90801 0.70131,-1.02743 0,-0.40796 -0.64682,-0.80292 -1.80319,-1.10107 -1.42639,-0.36776 -2.11913,-0.71808 -2.58094,-1.30519 -0.31272,-0.39754 -0.32791,-0.49574 -0.1248,-0.80651 0.58033,-0.88795 2.72282,-1.58435 6.27229,-2.03875 1.10934,-0.14202 4.49518,-0.44994 7.52408,-0.68427 3.02891,-0.23433 6.11579,-0.50225 6.85975,-0.59538 5.33631,-0.66802 8.60309,-1.42754 8.79932,-2.04583 0.20456,-0.6445 -0.19294,-0.82289 -1.83356,-0.82289 -2.89814,0 -12.2123,-0.51969 -15.30529,-0.85397 -5.20598,-0.56265 -9.29915,-1.49616 -11.57547,-2.63997 -1.00481,-0.5049 -2.15,-1.62774 -2.15,-2.10803 0,-1.95246 4.35734,-3.8821 10.5164,-4.65717 3.3539,-0.42207 12.17669,-0.42108 15.60653,0.002 2.75436,0.33955 5.95772,0.96449 7.52408,1.46786 2.89466,0.93025 5.86917,2.8355 6.83467,4.37778 0.87488,1.39751 1.1738,3.19399 0.71439,4.2935 -0.12574,0.30095 -0.54422,0.91183 -0.92994,1.35749 -0.38572,0.44567 -0.70131,0.95609 -0.70131,1.13428 0,0.41749 0.54592,0.76485 1.60627,1.02203 2.61483,0.63424 3.83465,2.06667 2.62599,3.08369 -1.3471,1.13352 -4.50611,1.56931 -14.96887,2.06499 -7.96429,0.37731 -9.93614,0.63591 -10.25946,1.34551 -0.28942,0.63522 0.0692,1.05012 1.08632,1.25673 0.48851,0.0992 2.90449,0.29464 5.36883,0.43425 12.11245,0.68617 16.11896,1.33132 19.658,3.16544 2.25994,1.17122 3.28678,2.68271 2.64156,3.88832 -0.51337,0.95924 -2.44313,2.02171 -4.79973,2.64259 -3.74453,0.98655 -11.36917,1.55129 -17.07713,1.26487 z"
         id="path2706"
         transform="matrix(12.499998,0,0,-12.499998,-770.37942,8259.474)" />
      <path
         style="fill:#30404d;fill-opacity:1;stroke:#30404d;stroke-width:1.35264;stroke-linecap:round;stroke-linejoin:round;stroke-opacity:1"
         d="m 432.42619,574.4958 c -0.63681,-0.16128 -2.04465,-1.17962 -2.76995,-2.0036 -2.36275,-2.68423 -3.67482,-8.7819 -3.07479,-14.28967 1.01999,-9.36265 5.87038,-14.50557 14.12676,-14.97874 4.07252,-0.2334 8.80832,1.19968 12.42741,3.76059 1.26264,0.89346 3.88813,3.45378 5.19218,5.06331 0.84614,1.04435 2.81291,4.30065 3.62535,6.00235 1.45347,3.04438 2.45015,6.29975 2.85541,9.32642 0.39316,2.93625 -0.2437,5.41596 -1.68393,6.55664 -0.60782,0.4814 -0.88107,0.5766 -1.85517,0.6463 -3.67748,0.26312 -7.46448,-2.81267 -11.08756,-9.00528 -0.54407,-0.92994 -1.16727,-1.96119 -1.38488,-2.29167 -0.21761,-0.33048 -0.39565,-0.65368 -0.39565,-0.71824 0,-0.28267 -2.46893,-4.15184 -3.01537,-4.72552 -0.51434,-0.53997 -0.7114,-0.63405 -1.3281,-0.63405 -1.24652,0 -1.44467,0.4974 -2.92999,7.355 -1.06178,4.90217 -2.0972,7.21158 -3.92114,8.74578 -0.49206,0.4139 -1.21956,0.87898 -1.61667,1.03352 -0.68687,0.26731 -2.39367,0.35193 -3.16391,0.15686 z"
         id="path2745"
         transform="matrix(12.499998,0,0,-12.499998,-770.37942,8259.474)" />
      <path
         style="fill:#30404d;fill-opacity:1;stroke:#30404d;stroke-width:1.35264;stroke-linecap:round;stroke-linejoin:round;stroke-opacity:1"
         d="m 384.91166,575.51398 c -0.88771,-0.12209 -2.84526,-0.74866 -3.71977,-1.19063 -1.11107,-0.56151 -2.367,-1.64815 -3.84451,-3.3263 -0.66098,-0.75075 -1.43168,-1.53619 -1.71267,-1.74543 -0.94847,-0.70629 -2.01911,-0.3711 -3.03009,0.94862 -0.82854,1.08158 -2.88126,3.07107 -3.79326,3.67641 -0.98698,0.65513 -2.88423,1.31346 -4.28127,1.48557 -2.68684,0.33102 -5.10834,-1.1224 -5.83272,-3.5009 -1.07826,-3.54045 0.43996,-10.66413 3.67491,-17.24319 1.7163,-3.49049 2.85447,-5.24458 4.93873,-7.61132 3.1216,-3.54466 7.37674,-5.22467 11.24688,-4.44048 2.53643,0.51394 4.07664,1.52335 6.45218,4.22854 1.61607,1.84033 2.20107,2.24153 2.98402,2.04649 0.29372,-0.0732 1.35055,-1.01935 2.83538,-2.53853 2.01009,-2.05657 2.53953,-2.50234 3.51013,-2.9554 5.14163,-2.40002 10.84801,-0.34038 15.20415,5.48773 3.35802,4.49271 6.43067,11.99175 7.24736,17.68772 0.26,1.81333 0.12883,4.50898 -0.27463,5.64395 -0.42076,1.18364 -1.74384,2.47545 -2.9511,2.88137 -1.78367,0.59974 -4.05108,0.33955 -6.1508,-0.70581 -1.49892,-0.74625 -2.50144,-1.59373 -4.1096,-3.47406 -1.38178,-1.61564 -1.91081,-1.99714 -2.76947,-1.99714 -0.45975,0 -0.73147,0.20738 -1.82601,1.39362 -3.37252,3.65505 -4.56865,4.44732 -7.72337,5.11563 -1.09271,0.23148 -4.77392,0.31241 -6.07447,0.13354 z"
         id="path2784"
         transform="matrix(12.499998,0,0,-12.499998,-770.37942,8259.474)" />
      <path
         style="fill:#30404d;fill-opacity:1;stroke:#30404d;stroke-width:1.35264;stroke-linecap:round;stroke-linejoin:round;stroke-opacity:1"
         d="m 312.84838,574.33533 c -0.93105,-0.52744 -1.416,-1.05775 -1.8764,-2.05191 -0.9015,-1.94666 -0.65117,-5.75947 0.64589,-9.83729 2.03198,-6.38836 6.02294,-12.23806 10.53129,-15.43612 6.64877,-4.7164 15.47021,-5.08561 20.91508,-0.87538 3.38349,2.61627 5.39981,7.26634 5.82651,13.43714 0.18744,2.71064 -0.34683,6.74597 -1.23171,9.30322 -0.79008,2.28328 -2.12808,4.12215 -3.6867,5.06677 -0.76127,0.46138 -1.14177,0.57437 -2.1427,0.63626 -1.67495,0.10357 -2.87376,-0.35404 -4.07536,-1.55564 -1.68002,-1.68002 -2.65702,-4.14086 -3.80854,-9.59287 -1.17051,-5.54194 -1.46839,-6.22487 -2.71519,-6.22487 -0.56395,0 -0.74663,0.11288 -1.46443,0.90482 -0.45105,0.49765 -1.57582,2.22861 -2.49948,3.84658 -4.3387,7.60004 -6.53554,10.29515 -9.64957,11.83822 -1.27649,0.63252 -1.61374,0.72559 -2.83756,0.78305 -1.11546,0.0524 -1.49564,0.005 -1.93113,-0.24198 z"
         id="path2823"
         transform="matrix(12.499998,0,0,-12.499998,-770.37942,8259.474)" />
      <path
         style="fill:#30404d;fill-opacity:1;stroke:#30404d;stroke-width:1.35264;stroke-linecap:round;stroke-linejoin:round;stroke-opacity:1"
         d="m 280.81262,575.12987 c -3.17719,-0.24978 -4.9222,-0.5681 -7.5451,-1.37633 -4.6524,-1.43362 -7.12371,-3.63081 -8.25896,-7.34285 -0.45226,-1.47884 -0.41716,-5.06323 0.0686,-7.008 0.57757,-2.31217 1.18552,-4.02244 2.09726,-5.89992 2.32908,-4.79613 5.49129,-8.31805 8.81769,-9.82072 2.65539,-1.19955 5.02209,-1.03463 6.39518,0.44564 1.14876,1.23843 1.33787,2.36802 1.29763,7.75093 -0.0347,4.63835 0.10201,5.66025 1.00593,7.52066 1.13557,2.33718 3.77255,3.85076 8.83278,5.06985 1.25542,0.30245 3.17723,0.76632 4.27068,1.03083 3.42332,0.82811 5.19783,1.95788 5.19783,3.30929 0,2.34112 -3.67434,4.48106 -9.72213,5.66218 -3.06333,0.59826 -9.13849,0.91936 -12.45743,0.65844 z"
         id="path2862"
         transform="matrix(12.499998,0,0,-12.499998,-770.37942,8259.474)" />
      <path
         style="fill:#30404d;fill-opacity:1;stroke:#30404d;stroke-width:1.35264;stroke-linecap:round;stroke-linejoin:round;stroke-opacity:1"
         d="m 231.21752,574.68727 c -5.43916,-0.53415 -8.4261,-1.45642 -10.91198,-3.36926 -2.57595,-1.98214 -3.61425,-4.31236 -3.61412,-8.11101 1e-4,-2.81281 0.58647,-5.34521 1.99904,-8.63332 2.63291,-6.12877 6.82309,-10.44151 11.51258,-11.84932 1.41744,-0.42552 4.43253,-0.4307 5.52404,-0.009 0.91404,0.35273 1.95387,1.40286 2.57114,2.59661 0.80941,1.56531 2.17421,2.6541 4.14683,3.3082 0.52045,0.17257 2.46799,0.62268 4.32787,1.00025 1.85989,0.37756 3.68596,0.74935 4.05794,0.82618 0.95849,0.19799 3.03926,0.96495 4.19864,1.5476 1.21399,0.61009 2.30693,1.67942 2.93466,2.87127 0.44853,0.85161 0.47507,1.02157 0.47087,3.01597 -0.005,2.28068 -0.10323,2.70265 -1.15962,4.97102 -1.10496,2.37266 -3.60158,5.18145 -6.25117,7.0328 -3.05552,2.13498 -7.67619,3.78009 -12.53626,4.46332 -1.89241,0.26603 -6.04333,0.45968 -7.27046,0.33917 z m 12.08926,-10.38807 c 1.77377,-0.25732 2.43718,-0.60362 2.50494,-1.30758 0.047,-0.48864 -0.0131,-0.58126 -0.51273,-0.79004 -1.14585,-0.47876 -3.40029,-0.65782 -8.33273,-0.66182 -6.2539,-0.005 -9.15269,0.32738 -9.56455,1.09695 -0.2614,0.48843 -0.072,1.06975 0.42187,1.29476 0.42179,0.19218 2.43543,0.48748 4.1548,0.6093 1.71938,0.12181 10.0477,-0.0558 11.3284,-0.24157 z"
         id="path2901"
         transform="matrix(12.499998,0,0,-12.499998,-770.37942,8259.474)" />
    </g>
  </g>
</svg>
