<?xml version="1.0" encoding="UTF-8" standalone="no"?>
<!-- Uploaded to: SVG Repo, www.svgrepo.com, Generator: SVG Repo Mixer Tools -->

<svg
   width="800px"
   height="800px"
   viewBox="0 0 24 24"
   fill="none"
   version="1.1"
   id="svg4"
   sodipodi:docname="camera.svg"
   inkscape:version="1.1.1 (3bf5ae0d25, 2021-09-20)"
   xmlns:inkscape="http://www.inkscape.org/namespaces/inkscape"
   xmlns:sodipodi="http://sodipodi.sourceforge.net/DTD/sodipodi-0.dtd"
   xmlns="http://www.w3.org/2000/svg"
   xmlns:svg="http://www.w3.org/2000/svg">
  <defs
     id="defs8" />
  <sodipodi:namedview
     id="namedview6"
     pagecolor="#ffffff"
     bordercolor="#666666"
     borderopacity="1.0"
     inkscape:pageshadow="2"
     inkscape:pageopacity="0.0"
     inkscape:pagecheckerboard="0"
     showgrid="false"
     inkscape:zoom="0.89875"
     inkscape:cx="399.44367"
     inkscape:cy="399.44367"
     inkscape:window-width="3840"
     inkscape:window-height="2066"
     inkscape:window-x="2869"
     inkscape:window-y="-11"
     inkscape:window-maximized="1"
     inkscape:current-layer="svg4" />
  <path
     fill-rule="evenodd"
     clip-rule="evenodd"
     d="M 15.45768,3 H 8.542344 l -1.98,3.0375 H 2.1 l -0.9,0.9 V 20.1 L 2.1,21 h 19.8 l 0.9,-0.9 V 6.9375 l -0.9,-0.9 H 17.43768 Z M 7.537656,7.8375 9.517656,4.8 h 4.964664 l 1.98,3.0375 H 21 V 19.2 H 3 V 7.8375 Z M 9.3,12.9 c 0,-1.49112 1.20888,-2.7 2.7,-2.7 1.49112,0 2.7,1.20888 2.7,2.7 0,1.49112 -1.20888,2.7 -2.7,2.7 -1.49112,0 -2.7,-1.20888 -2.7,-2.7 z M 12,8.4 c -2.485284,0 -4.5,2.01468 -4.5,4.5 0,2.48532 2.014716,4.5 4.5,4.5 2.48532,0 4.5,-2.01468 4.5,-4.5 0,-2.48532 -2.01468,-4.5 -4.5,-4.5 z"
     fill="#080341"
     id="path2"
     style="fill:#30404d;fill-opacity:1;stroke-width:1.20001" />
</svg>
