<?xml version="1.0" encoding="UTF-8" standalone="no"?>
<!-- Uploaded to: SVG Repo, www.svgrepo.com, Generator: SVG Repo Mixer Tools -->

<svg
   fill="#000000"
   width="800px"
   height="800px"
   viewBox="0 0 24 24"
   version="1.1"
   id="svg4"
   sodipodi:docname="facebook.svg"
   inkscape:version="1.1.1 (3bf5ae0d25, 2021-09-20)"
   xmlns:inkscape="http://www.inkscape.org/namespaces/inkscape"
   xmlns:sodipodi="http://sodipodi.sourceforge.net/DTD/sodipodi-0.dtd"
   xmlns="http://www.w3.org/2000/svg"
   xmlns:svg="http://www.w3.org/2000/svg">
  <defs
     id="defs8" />
  <sodipodi:namedview
     id="namedview6"
     pagecolor="#ffffff"
     bordercolor="#666666"
     borderopacity="1.0"
     inkscape:pageshadow="2"
     inkscape:pageopacity="0.0"
     inkscape:pagecheckerboard="0"
     showgrid="false"
     inkscape:zoom="0.89875"
     inkscape:cx="376.07789"
     inkscape:cy="399.44367"
     inkscape:window-width="3840"
     inkscape:window-height="2066"
     inkscape:window-x="2869"
     inkscape:window-y="-11"
     inkscape:window-maximized="1"
     inkscape:current-layer="svg4" />
  <path
     d="M 11.999985,0 C 5.399993,0 0,5.4096331 0,12.072301 0,18.096391 4.391994,23.096386 10.127987,24 V 15.566274 H 7.079991 v -3.493973 h 3.047996 V 9.409629 c 0,-3.0240932 1.787998,-4.6867422 4.535994,-4.6867422 1.307999,0 2.675997,0.2289155 2.675997,0.2289155 V 7.9277029 H 15.82798 c -1.487998,0 -1.955998,0.9277101 -1.955998,1.8795401 v 2.265058 h 3.335996 l -0.539999,3.493973 H 13.871982 V 24 c 2.827677,-0.448433 5.402633,-1.896986 7.259871,-4.084333 1.857238,-2.187227 2.874596,-4.969152 2.868116,-7.843366 C 23.999969,5.4096331 18.599976,0 11.999985,0 Z"
     id="path2"
     style="stroke-width:1.2024;fill:#30404d;fill-opacity:1" />
</svg>
