<?xml version="1.0" encoding="UTF-8" standalone="no"?>
<!-- Uploaded to: SVG Repo, www.svgrepo.com, Generator: SVG Repo Mixer Tools -->

<svg
   width="800px"
   height="800px"
   viewBox="0 0 24 24"
   version="1.1"
   id="svg6"
   sodipodi:docname="gpx.svg"
   inkscape:version="1.1.1 (3bf5ae0d25, 2021-09-20)"
   xmlns:inkscape="http://www.inkscape.org/namespaces/inkscape"
   xmlns:sodipodi="http://sodipodi.sourceforge.net/DTD/sodipodi-0.dtd"
   xmlns="http://www.w3.org/2000/svg"
   xmlns:svg="http://www.w3.org/2000/svg">
  <defs
     id="defs10" />
  <sodipodi:namedview
     id="namedview8"
     pagecolor="#ffffff"
     bordercolor="#666666"
     borderopacity="1.0"
     inkscape:pageshadow="2"
     inkscape:pageopacity="0.0"
     inkscape:pagecheckerboard="0"
     showgrid="false"
     inkscape:zoom="0.89875"
     inkscape:cx="399.44367"
     inkscape:cy="399.44367"
     inkscape:window-width="3840"
     inkscape:window-height="2066"
     inkscape:window-x="2869"
     inkscape:window-y="-11"
     inkscape:window-maximized="1"
     inkscape:current-layer="svg6" />
  <path
     d="M15.29 1H3v11h1V2h10v6h6v14H4v-1H3v2h18V6.709zM20 7h-5V2h.2L20 6.8zM5 13.295A2.018 2.018 0 0 0 3.959 13h-.918A2.044 2.044 0 0 0 1 15.041v.918A2.044 2.044 0 0 0 3.041 18h.918A2.018 2.018 0 0 0 5 17.705v.254A1.042 1.042 0 0 1 3.959 19H2v1h1.959A2.044 2.044 0 0 0 6 17.959V13H5zM3.959 17h-.918A1.042 1.042 0 0 1 2 15.959v-.918A1.042 1.042 0 0 1 3.041 14h.918A1.042 1.042 0 0 1 5 15.041v.918A1.042 1.042 0 0 1 3.959 17zM12 15.041A2.044 2.044 0 0 0 9.959 13h-.918A2.018 2.018 0 0 0 8 13.295V13H7v7h1v-2.295A2.018 2.018 0 0 0 9.041 18h.918A2.044 2.044 0 0 0 12 15.959zm-1 .918A1.042 1.042 0 0 1 9.959 17h-.918A1.042 1.042 0 0 1 8 15.959v-.918A1.042 1.042 0 0 1 9.041 14h.918A1.042 1.042 0 0 1 11 15.041zM18.238 13h-1.287L15.5 14.79 14.049 13h-1.287l2.094 2.583L12.896 18h1.288l1.316-1.623L16.816 18h1.287l-1.96-2.417z"
     id="path2"
     style="stroke-width:0.99999;stroke-miterlimit:4;stroke-dasharray:none;fill:#30404d;fill-opacity:1" />
  <path
     fill="none"
     d="M0 0h24v24H0z"
     id="path4" />
</svg>
