<?xml version="1.0" encoding="UTF-8" standalone="no"?>
<!-- Uploaded to: SVG Repo, www.svgrepo.com, Generator: SVG Repo Mixer Tools -->

<svg
   width="800px"
   height="800px"
   viewBox="0 0 24 24"
   fill="none"
   version="1.1"
   id="svg8"
   sodipodi:docname="instagram.svg"
   inkscape:version="1.1.1 (3bf5ae0d25, 2021-09-20)"
   xmlns:inkscape="http://www.inkscape.org/namespaces/inkscape"
   xmlns:sodipodi="http://sodipodi.sourceforge.net/DTD/sodipodi-0.dtd"
   xmlns="http://www.w3.org/2000/svg"
   xmlns:svg="http://www.w3.org/2000/svg">
  <defs
     id="defs12" />
  <sodipodi:namedview
     id="namedview10"
     pagecolor="#ffffff"
     bordercolor="#666666"
     borderopacity="1.0"
     inkscape:pageshadow="2"
     inkscape:pageopacity="0.0"
     inkscape:pagecheckerboard="0"
     showgrid="false"
     inkscape:zoom="0.89875"
     inkscape:cx="399.44367"
     inkscape:cy="399.44367"
     inkscape:window-width="3840"
     inkscape:window-height="2066"
     inkscape:window-x="2869"
     inkscape:window-y="-11"
     inkscape:window-maximized="1"
     inkscape:current-layer="svg8" />
  <path
     fill-rule="evenodd"
     clip-rule="evenodd"
     d="m 12,18.545455 c 3.614945,0 6.545455,-2.93051 6.545455,-6.545455 0,-3.6149564 -2.93051,-6.5454545 -6.545455,-6.5454545 -3.6149564,0 -6.5454545,2.9304981 -6.5454545,6.5454545 0,3.614945 2.9304981,6.545455 6.5454545,6.545455 z m 0,-2.181819 c 2.409927,0 4.363636,-1.953709 4.363636,-4.363636 C 16.363636,9.590029 14.409927,7.6363636 12,7.6363636 9.590029,7.6363636 7.6363636,9.590029 7.6363636,12 c 0,2.409927 1.9536654,4.363636 4.3636364,4.363636 z"
     fill="#0f0f0f"
     id="path2"
     style="stroke-width:1.09091;fill:#30404d;fill-opacity:1" />
  <path
     d="m 18.545455,4.3636364 c -0.60251,0 -1.09091,0.4884218 -1.09091,1.0909091 0,0.6024872 0.4884,1.090909 1.09091,1.090909 0.602509,0 1.090909,-0.4884218 1.090909,-1.090909 0,-0.6024873 -0.4884,-1.0909091 -1.090909,-1.0909091 z"
     fill="#0f0f0f"
     id="path4"
     style="stroke-width:1.09091;fill:#30404d;fill-opacity:1" />
  <path
     fill-rule="evenodd"
     clip-rule="evenodd"
     d="M 0.7134109,3.5738836 C 0,4.9740327 0,6.8069345 0,10.472727 v 3.054546 c 0,3.665782 0,5.498727 0.7134109,6.8988 0.6275346,1.231636 1.6288582,2.232982 2.8604727,2.860472 C 4.9740327,24 6.8069345,24 10.472727,24 h 3.054546 c 3.665782,0 5.498727,0 6.8988,-0.713455 1.231636,-0.62749 2.232982,-1.628836 2.860472,-2.860472 C 24,19.026 24,17.193055 24,13.527273 V 10.472727 C 24,6.8069345 24,4.9740327 23.286545,3.5738836 22.659055,2.3422691 21.657709,1.3409455 20.426073,0.7134109 19.026,0 17.193055,0 13.527273,0 H 10.472727 C 6.8069345,0 4.9740327,0 3.5738836,0.7134109 2.3422691,1.3409455 1.3409455,2.3422691 0.7134109,3.5738836 Z M 13.527273,2.1818182 h -3.054546 c -1.8689015,0 -3.1393634,0.0017 -4.121367,0.081927 C 5.3948073,2.3418982 4.9056436,2.4835527 4.5644073,2.6574218 3.7433345,3.0757855 3.0757855,3.7433345 2.6574218,4.5644073 2.4835527,4.9056436 2.3418982,5.3948073 2.2637455,6.35136 2.18352,7.3333636 2.1818182,8.6038255 2.1818182,10.472727 v 3.054546 c 0,1.868945 0.0017,3.139309 0.081927,4.121345 0.078153,0.956618 0.2198072,1.445782 0.3936763,1.787018 0.4183637,0.821019 1.0859127,1.488546 1.9069855,1.906909 0.3412363,0.173891 0.8304,0.3156 1.7869527,0.39371 0.9820039,0.08018 2.2524658,0.08193 4.1213673,0.08193 h 3.054546 c 1.868945,0 3.139309,-0.0017 4.121345,-0.08193 0.956618,-0.07811 1.445782,-0.219819 1.787018,-0.39371 0.821019,-0.418363 1.488546,-1.08589 1.906909,-1.906909 0.173891,-0.341236 0.3156,-0.8304 0.39371,-1.787018 0.08018,-0.982036 0.08193,-2.2524 0.08193,-4.121345 v -3.054546 c 0,-1.8689015 -0.0017,-3.1393634 -0.08193,-4.121367 C 21.658145,5.3948073 21.516436,4.9056436 21.342545,4.5644073 20.924182,3.7433345 20.256655,3.0757855 19.435636,2.6574218 19.0944,2.4835527 18.605236,2.3418982 17.648618,2.2637455 16.666582,2.18352 15.396218,2.1818182 13.527273,2.1818182 Z"
     fill="#0f0f0f"
     id="path6"
     style="stroke-width:1.09091;fill:#30404d;fill-opacity:1" />
</svg>
