<?xml version="1.0" encoding="UTF-8" standalone="no"?>
<!-- Uploaded to: SVG Repo, www.svgrepo.com, Generator: SVG Repo Mixer Tools -->

<svg
   fill="#000000"
   width="800px"
   height="800px"
   viewBox="0 0 24 24"
   role="img"
   version="1.1"
   id="svg6"
   sodipodi:docname="komoot.svg"
   inkscape:version="1.1.1 (3bf5ae0d25, 2021-09-20)"
   xmlns:inkscape="http://www.inkscape.org/namespaces/inkscape"
   xmlns:sodipodi="http://sodipodi.sourceforge.net/DTD/sodipodi-0.dtd"
   xmlns="http://www.w3.org/2000/svg"
   xmlns:svg="http://www.w3.org/2000/svg">
  <defs
     id="defs10" />
  <sodipodi:namedview
     id="namedview8"
     pagecolor="#ffffff"
     bordercolor="#666666"
     borderopacity="1.0"
     inkscape:pageshadow="2"
     inkscape:pageopacity="0.0"
     inkscape:pagecheckerboard="0"
     showgrid="false"
     inkscape:zoom="0.89875"
     inkscape:cx="399.44367"
     inkscape:cy="399.44367"
     inkscape:window-width="3840"
     inkscape:window-height="2066"
     inkscape:window-x="2869"
     inkscape:window-y="-11"
     inkscape:window-maximized="1"
     inkscape:current-layer="svg6" />
  <title
     id="title2">Komoot icon</title>
  <path
     d="m 9.8000373,14.829 2.1999937,-3.43 2.199995,3.43 5.961984,5.962 A 11.945969,11.946 0 0 1 12.000031,24 C 8.9570396,24 6.0650472,22.86 3.838053,20.791 Z M 6.3064029e-5,12 C 6.3064029e-5,5.385 5.3850489,0 12.000031,0 18.620014,0 24,5.385 24,12 c 0,2.663 -0.854998,5.175 -2.468994,7.284 l -6.017984,-6.018 c 0.15,-0.412 0.226,-0.839 0.226,-1.27 A 3.7429902,3.743 0 0 0 12.000031,8.257 3.7429902,3.743 0 0 0 8.2610414,11.996 c 0,0.431 0.075,0.858 0.2259994,1.27 L 2.4690566,19.284 A 11.864969,11.865 0 0 1 6.3064029e-5,12 Z"
     id="path4"
     style="stroke-width:0.999999;fill:#30404d;fill-opacity:1" />
</svg>
