<?xml version="1.0" encoding="UTF-8" standalone="no"?>
<!-- Created with Inkscape (http://www.inkscape.org/) -->

<svg
   width="335mm"
   height="338.66666mm"
   viewBox="0 0 335 338.66666"
   version="1.1"
   id="svg5"
   inkscape:version="1.1.1 (3bf5ae0d25, 2021-09-20)"
   sodipodi:docname="pack2.svg"
   xmlns:inkscape="http://www.inkscape.org/namespaces/inkscape"
   xmlns:sodipodi="http://sodipodi.sourceforge.net/DTD/sodipodi-0.dtd"
   xmlns="http://www.w3.org/2000/svg"
   xmlns:svg="http://www.w3.org/2000/svg">
  <sodipodi:namedview
     id="namedview7"
     pagecolor="#ffffff"
     bordercolor="#666666"
     borderopacity="1.0"
     inkscape:pageshadow="2"
     inkscape:pageopacity="0.0"
     inkscape:pagecheckerboard="0"
     inkscape:document-units="mm"
     showgrid="false"
     inkscape:zoom="0.90583672"
     inkscape:cx="1161.3572"
     inkscape:cy="556.39166"
     inkscape:window-width="3840"
     inkscape:window-height="2066"
     inkscape:window-x="2869"
     inkscape:window-y="-11"
     inkscape:window-maximized="1"
     inkscape:current-layer="layer1" />
  <defs
     id="defs2" />
  <g
     inkscape:label="Warstwa 1"
     inkscape:groupmode="layer"
     id="layer1"
     transform="translate(148.66621,26.409836)">
    <path
       style="fill:#42a496;fill-opacity:1;stroke-width:0.264583"
       d="m 54.496687,133.9116 c -0.487338,-0.19063 -0.777033,-0.56952 -0.958101,-1.25308 -0.142748,-0.5389 -1.644099,-5.61162 -3.336335,-11.27271 -3.193076,-10.68189 -3.296989,-11.13296 -2.740101,-11.89455 0.743762,-1.01715 10.050282,-1.81849 11.172682,-0.96202 0.99124,0.75639 3.433429,0.46929 4.495514,-0.52849 0.988708,-0.92884 92.437284,-17.105131 93.523644,-16.543346 1.09953,0.568584 2.21435,0.499083 3.65577,-0.227907 1.59724,-0.805561 15.24709,-3.336684 15.6768,-2.906982 0.15219,0.152204 0.99063,2.528205 1.8632,5.280003 1.93024,6.087547 1.99183,5.685288 -1.53826,10.046102 -10.88165,13.44237 -9.98035,12.56367 -13.40342,13.06723 -2.16382,0.31832 -12.65315,2.07833 -14.31492,2.40191 -1.49082,0.2903 -11.64478,1.94583 -15.47812,2.5236 -1.38245,0.20836 -3.7637,0.60729 -5.29167,0.8865 -1.52797,0.27921 -3.73062,0.64597 -4.89479,0.81502 -1.16416,0.16904 -3.00963,0.47662 -4.10104,0.68351 -1.09141,0.20688 -4.66328,0.79732 -7.9375,1.31207 -3.27422,0.51476 -6.48891,1.04441 -7.14375,1.17701 -0.65484,0.1326 -2.50031,0.43306 -4.101042,0.66768 -1.600729,0.23463 -3.743854,0.59237 -4.7625,0.79499 -1.018645,0.20261 -3.757083,0.67369 -6.085416,1.04684 -2.328334,0.37315 -6.316927,1.02923 -8.863542,1.45795 -2.546615,0.42872 -6.535208,1.08527 -8.863542,1.459 -8.107386,1.30133 -9.266407,1.49914 -10.233173,1.74647 -1.509035,0.38606 -5.559525,0.52865 -6.340388,0.2232 z M 128.74598,84.541243 c -0.0929,-0.559189 -0.27483,-1.314362 -0.40429,-1.678164 -0.12949,-0.363803 -0.60417,-2.14974 -1.05487,-3.96875 -0.45069,-1.819011 -0.93472,-3.767471 -1.07566,-4.329912 -0.40904,-1.632601 -0.15544,-1.95512 2.54193,-3.232629 1.35724,-0.642789 2.52995,-1.168709 2.60604,-1.168709 0.0761,0 2.07989,-0.905465 4.45286,-2.012146 2.37297,-1.106678 4.96935,-2.314686 5.76972,-2.684457 0.80036,-0.369771 2.68269,-1.250244 4.18295,-1.956604 1.50024,-0.706361 2.77313,-1.284293 2.82861,-1.284293 0.0555,0 1.09016,-0.459587 2.29934,-1.021305 1.20917,-0.561718 3.03191,-1.407353 4.05055,-1.879187 2.0024,-0.927497 3.56601,-1.656615 7.67292,-3.577897 5.5585,-2.600351 5.52334,-2.598253 6.19453,-0.369634 0.19206,0.637715 0.56322,1.691138 0.82481,2.340939 l 0.47559,1.181454 -0.6386,0.591849 c -0.35126,0.325517 -0.63862,0.729173 -0.63862,0.897017 0,0.167841 -0.29766,0.65891 -0.66146,1.091266 -1.52678,1.81446 -0.39661,4.880136 1.75228,4.75334 1.42013,-0.08379 1.64913,0.756251 0.52293,1.918216 -1.5638,1.613424 -0.71123,4.376999 1.3539,4.388641 l 0.71866,0.004 -0.54052,0.916117 c -0.44537,0.754843 -0.50898,1.168408 -0.36145,2.349262 0.22926,1.834917 2.64803,1.187217 -20.93494,5.605928 -11.33597,2.124006 -20.87129,3.924938 -21.18958,4.002072 -0.50078,0.121353 -0.60148,0.0033 -0.74763,-0.876464 z"
       id="path1596"
       sodipodi:nodetypes="sssssssssssssssssssssssssscsscssssssssssscsssssscsssscc" />
    <path
       style="fill:#000000;stroke-width:0.264583"
       id="path836"
       d="" />
  </g>
</svg>
