<?xml version="1.0" encoding="UTF-8" standalone="no"?>
<!-- Created with Inkscape (http://www.inkscape.org/) -->

<svg
   width="508mm"
   height="338.66666mm"
   viewBox="0 0 508 338.66666"
   version="1.1"
   id="svg5"
   sodipodi:docname="pack3.svg"
   inkscape:version="1.1.1 (3bf5ae0d25, 2021-09-20)"
   xmlns:inkscape="http://www.inkscape.org/namespaces/inkscape"
   xmlns:sodipodi="http://sodipodi.sourceforge.net/DTD/sodipodi-0.dtd"
   xmlns="http://www.w3.org/2000/svg"
   xmlns:svg="http://www.w3.org/2000/svg">
  <sodipodi:namedview
     id="namedview7"
     pagecolor="#ffffff"
     bordercolor="#666666"
     borderopacity="1.0"
     inkscape:pageshadow="2"
     inkscape:pageopacity="0.0"
     inkscape:pagecheckerboard="0"
     inkscape:document-units="mm"
     showgrid="false"
     inkscape:zoom="0.45291836"
     inkscape:cx="1664.7592"
     inkscape:cy="317.93809"
     inkscape:window-width="3840"
     inkscape:window-height="2066"
     inkscape:window-x="2869"
     inkscape:window-y="-11"
     inkscape:window-maximized="1"
     inkscape:current-layer="layer1"
     width="507mm" />
  <defs
     id="defs2" />
  <g
     inkscape:label="Warstwa 1"
     inkscape:groupmode="layer"
     id="layer1"
     transform="translate(148.66621,26.409836)">
    <path
       style="fill:#5bbd94;stroke-width:0.264583;fill-opacity:1"
       d="m 233.25983,111.93317 c -6.77463,-0.92689 -14.63371,-4.99292 -18.65312,-9.65049 -2.80736,-3.253089 -2.80715,-3.251944 -0.72761,-4.048109 12.42711,-4.757756 22.67302,-17.470578 22.19775,-27.542326 -0.0241,-0.509322 -0.17896,-2.071581 -0.34433,-3.471682 l -0.30062,-2.545641 0.76605,-0.96008 c 0.42132,-0.528045 0.90622,-0.960083 1.07757,-0.960088 0.17134,-6e-6 0.52853,-0.271111 0.79375,-0.602457 0.26522,-0.331345 0.89895,-0.890918 1.40827,-1.243491 0.50932,-0.352576 1.56205,-1.153036 2.33937,-1.778802 2.93653,-2.364002 4.88397,-1.340609 6.02699,3.167243 l 0.61405,2.421686 -0.69699,1.200719 c -0.38333,0.660394 -0.77788,1.26025 -0.87673,1.33301 -4.26246,3.137191 -0.98404,9.5939 8.2957,16.338021 0.94974,0.690237 1.71098,0.766598 1.93085,0.193685 0.22333,-0.582025 -0.39714,-1.907921 -0.96198,-2.055627 -2.13608,-0.558604 -4.82989,-12.941734 -4.73188,-21.75212 0.0222,-2.004806 -0.68811,-5.498796 -1.38142,-6.79427 -0.34417,-0.64308 -0.21349,-0.616215 1.55427,0.319595 5.41507,2.866578 8.4591,5.508583 11.40693,9.900373 4.04354,6.024274 5.69134,11.649593 5.47296,18.683842 -0.10369,3.339619 -0.26975,4.364318 -1.34787,8.317542 -2.78207,10.201207 -13.02025,19.423397 -23.4727,21.143327 -3.32523,0.7107 -6.99827,0.78952 -10.38926,0.38614 z M 207.78234,90.072974 c -1.04585,-2.777516 -1.23132,-4.259855 -1.21656,-9.723437 0.0127,-4.680913 1.7236,-11.674684 3.3982,-13.890625 0.16497,-0.218281 0.4734,-0.747591 0.68538,-1.176242 0.21201,-0.428654 0.76398,-1.195104 1.22661,-1.703223 l 0.84111,-0.923854 2.73076,-0.01656 c 7.44358,-0.04516 13.64414,7.418184 10.75725,12.948015 -1.48543,2.845324 -2.66335,4.629605 -4.13504,6.263635 -1.72059,1.910357 -2.50934,2.575657 -5.74355,4.844494 -1.01865,0.714594 -2.2365,1.627116 -2.70632,2.027827 -0.46985,0.400712 -1.30328,0.810271 -1.85208,0.91013 -0.54883,0.09986 -1.56782,0.403389 -2.26441,0.67451 -1.56012,0.607187 -1.39592,0.629571 -1.72135,-0.234659 z"
       id="path1596"
       sodipodi:nodetypes="csssscsssssscscssscsssssccssssscsssssssss" />
    <path
       style="fill:#000000;stroke-width:0.264583"
       id="path836"
       d="" />
  </g>
</svg>
