<?xml version="1.0" encoding="UTF-8" standalone="no"?>
<!-- Created with Inkscape (http://www.inkscape.org/) -->

<svg
   width="185mm"
   height="338.66666mm"
   viewBox="0 0 185 338.66666"
   version="1.1"
   id="svg5"
   sodipodi:docname="pack1.svg"
   inkscape:version="1.1.1 (3bf5ae0d25, 2021-09-20)"
   xmlns:inkscape="http://www.inkscape.org/namespaces/inkscape"
   xmlns:sodipodi="http://sodipodi.sourceforge.net/DTD/sodipodi-0.dtd"
   xmlns="http://www.w3.org/2000/svg"
   xmlns:svg="http://www.w3.org/2000/svg">
  <sodipodi:namedview
     id="namedview7"
     pagecolor="#ffffff"
     bordercolor="#666666"
     borderopacity="1.0"
     inkscape:pageshadow="2"
     inkscape:pageopacity="0.0"
     inkscape:pagecheckerboard="0"
     inkscape:document-units="mm"
     showgrid="false"
     inkscape:zoom="0.64052329"
     inkscape:cx="1305.1828"
     inkscape:cy="444.94869"
     inkscape:window-width="3840"
     inkscape:window-height="2066"
     inkscape:window-x="2869"
     inkscape:window-y="-11"
     inkscape:window-maximized="1"
     inkscape:current-layer="layer1" />
  <defs
     id="defs2" />
  <g
     inkscape:label="Warstwa 1"
     inkscape:groupmode="layer"
     id="layer1"
     transform="translate(148.66621,26.409836)">
    <path
       style="fill:#408a8d;fill-opacity:1;stroke-width:0.264583"
       d="M 27.943165,86.554286 C 26.821869,86.314319 10.290125,83.096933 4.2629567,81.945673 2.2984254,81.570425 0.39342542,81.201424 0.02962333,81.125674 -0.33417875,81.049923 -1.34621,80.871695 -2.219335,80.729613 -3.09246,80.58753 -4.6402725,80.284299 -5.6589183,80.055765 c -1.0186459,-0.228531 -2.0902084,-0.459849 -2.38125,-0.514033 -1.943862,-0.361907 -5.5798537,-1.026226 -7.1437497,-1.305208 -1.018646,-0.181716 -2.387865,-0.46011 -3.042709,-0.618654 -0.654843,-0.158543 -3.155156,-0.659574 -5.55625,-1.113398 -9.774915,-1.847538 -11.333591,-2.158765 -13.361458,-2.667932 -1.164167,-0.292306 -2.880101,-0.704844 -3.813188,-0.916757 -2.896066,-0.657717 -4.35941,-2.04217 -5.011243,-4.741079 -0.140584,-0.582084 -0.486709,-1.891771 -0.769168,-2.910417 -0.282458,-1.018646 -1.005514,-3.697552 -1.606793,-5.953125 -0.601281,-2.255573 -1.513853,-5.628105 -2.027941,-7.494518 -0.514086,-1.866411 -1.283753,-4.723911 -1.710367,-6.35 -0.81805,-3.118083 -2.250729,-8.49648 -3.324781,-12.481523 -3.524499,-13.076883 -4.150813,-12.962016 20.247856,-3.713474 1.67349,0.634351 3.518958,1.301369 4.101042,1.482264 0.582083,0.180893 3.022864,1.089517 5.423958,2.019168 2.401094,0.929648 5.258594,1.997998 6.35,2.374109 1.091406,0.376113 2.401094,0.893381 2.910417,1.14949 0.509323,0.256109 1.34276,0.586107 1.852083,0.733332 0.509323,0.147228 1.938073,0.644792 3.175,1.105705 1.236927,0.460909 2.6061458,0.947306 3.0427083,1.080878 0.4365625,0.13357 1.031875,0.35524 1.3229167,0.492596 0.2910417,0.137356 1.2328499,0.501801 2.0929044,0.809876 0.8600573,0.308076 1.9195971,0.859571 2.3545324,1.225545 1.002456,0.84351 3.27584066,1.983055 5.4190292,2.716313 0.9154107,0.313193 2.1060357,0.85856 2.6458333,1.211927 0.7660402,0.50147 1.5911962,0.706665 3.7595757,0.934915 3.247112,0.3418 3.704167,0.452991 3.704167,0.901147 0,0.673288 1.235495,1.416468 2.910416,1.750687 1.85955,0.371063 4.204314,1.410356 4.346136,1.926384 0.04837,0.175982 2.327889,8.039142 5.065602,17.473686 5.626166,19.388547 5.496398,18.504728 2.626804,17.890617 z"
       id="path1596"
       sodipodi:nodetypes="ssssssssssssssssssssssssssssssssssss" />
    <path
       style="fill:#000000;stroke-width:0.264583"
       id="path836"
       d="" />
  </g>
</svg>
