<?xml version="1.0" encoding="UTF-8" standalone="no"?>
<!-- Created with Inkscape (http://www.inkscape.org/) -->

<svg
   width="508mm"
   height="338.66666mm"
   viewBox="0 0 508 338.66666"
   version="1.1"
   id="svg5"
   sodipodi:docname="Pack2.svg"
   inkscape:version="1.1.1 (3bf5ae0d25, 2021-09-20)"
   xmlns:inkscape="http://www.inkscape.org/namespaces/inkscape"
   xmlns:sodipodi="http://sodipodi.sourceforge.net/DTD/sodipodi-0.dtd"
   xmlns="http://www.w3.org/2000/svg"
   xmlns:svg="http://www.w3.org/2000/svg">
  <sodipodi:namedview
     id="namedview7"
     pagecolor="#ffffff"
     bordercolor="#666666"
     borderopacity="1.0"
     inkscape:pageshadow="2"
     inkscape:pageopacity="0.0"
     inkscape:pagecheckerboard="0"
     inkscape:document-units="mm"
     showgrid="false"
     inkscape:zoom="0.90583672"
     inkscape:cx="1292.7275"
     inkscape:cy="396.31867"
     inkscape:window-width="3840"
     inkscape:window-height="2066"
     inkscape:window-x="2869"
     inkscape:window-y="-11"
     inkscape:window-maximized="1"
     inkscape:current-layer="layer1" />
  <defs
     id="defs2" />
  <g
     inkscape:label="Warstwa 1"
     inkscape:groupmode="layer"
     id="layer1"
     transform="translate(148.66621,26.409836)">
    <path
       style="fill:#ffb797;stroke-width:0.264583;fill-opacity:1"
       d="m 54.496687,133.9116 c -0.487338,-0.19063 -0.777033,-0.56952 -0.958101,-1.25308 -0.142748,-0.5389 -1.644099,-5.61162 -3.336335,-11.27271 -3.193076,-10.68189 -3.296989,-11.13296 -2.740101,-11.89455 0.743762,-1.01715 10.050282,-1.81849 11.172682,-0.96202 0.99124,0.75639 3.433429,0.46929 4.495514,-0.52849 0.988708,-0.92884 92.437284,-17.105131 93.523644,-16.543346 1.09953,0.568584 2.21435,0.499083 3.65577,-0.227907 1.59724,-0.805561 15.24709,-3.336684 15.6768,-2.906982 0.15219,0.152204 0.99063,2.528205 1.8632,5.280003 1.93024,6.087547 1.99183,5.685288 -1.53826,10.046102 -10.88165,13.44237 -9.98035,12.56367 -13.40342,13.06723 -2.16382,0.31832 -12.65315,2.07833 -14.31492,2.40191 -1.49082,0.2903 -11.64478,1.94583 -15.47812,2.5236 -1.38245,0.20836 -3.7637,0.60729 -5.29167,0.8865 -1.52797,0.27921 -3.73062,0.64597 -4.89479,0.81502 -1.16416,0.16904 -3.00963,0.47662 -4.10104,0.68351 -1.09141,0.20688 -4.66328,0.79732 -7.9375,1.31207 -3.27422,0.51476 -6.48891,1.04441 -7.14375,1.17701 -0.65484,0.1326 -2.50031,0.43306 -4.101042,0.66768 -1.600729,0.23463 -3.743854,0.59237 -4.7625,0.79499 -1.018645,0.20261 -3.757083,0.67369 -6.085416,1.04684 -2.328334,0.37315 -6.316927,1.02923 -8.863542,1.45795 -2.546615,0.42872 -6.535208,1.08527 -8.863542,1.459 -8.107386,1.30133 -9.266407,1.49914 -10.233173,1.74647 -1.509035,0.38606 -5.559525,0.52865 -6.340388,0.2232 z"
       id="path1596"
       sodipodi:nodetypes="ssssssssssssssssssssssssss" />
    <path
       style="fill:#000000;stroke-width:0.264583"
       id="path836"
       d="" />
  </g>
</svg>
